<svg xmlns="http://www.w3.org/2000/svg" version="1.1" xmlns:xlink="http://www.w3.org/1999/xlink" xmlns:svgjs="http://svgjs.dev/svgjs" width="1440" height="850" preserveAspectRatio="none" viewBox="0 0 1440 850"><g mask="url(&quot;#SvgjsMask1486&quot;)" fill="none"><rect width="1440" height="850" x="0" y="0" fill="url(&quot;#SvgjsLinearGradient1487&quot;)"></rect><path d="M1082.69 687.97 a225.56 225.56 0 1 0 451.12 0 a225.56 225.56 0 1 0 -451.12 0z" fill="rgba(28, 83, 142, 0.4)" class="triangle-float1"></path><path d="M850.77 378.83 a239.45 239.45 0 1 0 478.9 0 a239.45 239.45 0 1 0 -478.9 0z" fill="rgba(28, 83, 142, 0.4)" class="triangle-float3"></path><path d="M1051.29,902.131C1096.516,901.057,1128.217,861.933,1149.229,821.87C1168.489,785.147,1172.042,743.342,1154.2,705.91C1133.234,661.923,1100.006,617.49,1051.29,616.398C1001.354,615.279,962.605,656.536,940.068,701.111C919.804,741.19,923.21,787.423,944.952,826.719C967.5,867.471,1004.729,903.236,1051.29,902.131" fill="rgba(28, 83, 142, 0.4)" class="triangle-float2"></path><path d="M195.21 791.3 a211.95 211.95 0 1 0 423.9 0 a211.95 211.95 0 1 0 -423.9 0z" fill="rgba(28, 83, 142, 0.4)" class="triangle-float2"></path><path d="M768.42 90.47 a202.65 202.65 0 1 0 405.3 0 a202.65 202.65 0 1 0 -405.3 0z" fill="rgba(28, 83, 142, 0.4)" class="triangle-float2"></path></g><defs><mask id="SvgjsMask1486"><rect width="1440" height="850" fill="#ffffff"></rect></mask><linearGradient x1="89.76%" y1="117.35%" x2="10.24%" y2="-17.35%" gradientUnits="userSpaceOnUse" id="SvgjsLinearGradient1487"><stop stop-color="rgba(14, 42, 71, 1)" offset="0"></stop><stop stop-color="rgba(99, 176, 254, 1)" offset="1"></stop></linearGradient><style>
                @keyframes float1 {
                    0%{transform: translate(0, 0)}
                    50%{transform: translate(-10px, 0)}
                    100%{transform: translate(0, 0)}
                }

                .triangle-float1 {
                    animation: float1 5s infinite;
                }

                @keyframes float2 {
                    0%{transform: translate(0, 0)}
                    50%{transform: translate(-5px, -5px)}
                    100%{transform: translate(0, 0)}
                }

                .triangle-float2 {
                    animation: float2 4s infinite;
                }

                @keyframes float3 {
                    0%{transform: translate(0, 0)}
                    50%{transform: translate(0, -10px)}
                    100%{transform: translate(0, 0)}
                }

                .triangle-float3 {
                    animation: float3 6s infinite;
                }
            </style></defs></svg>